<svg xmlns="http://www.w3.org/2000/svg" width="16" height="10" fill="none"><path fill="#fff" d="M16 9h-.1a9 9 0 0 0-1.6-2.1l-.7-.8a.8.8 0 0 1-.2-.7l.8-1.2.5-.8c1-1.4 1.4-2.3 1.3-2.7l-.3-.2H12.4l-.1.2v.1a15.6 15.6 0 0 1-2 3.7 3 3 0 0 1-.3.3h-.4l-.1-.2-.1-.3a4.6 4.6 0 0 1 0-.9 11.7 11.7 0 0 0 0-1 67.2 67.2 0 0 1-.1-2L9 .3h-.3A5 5 0 0 0 7.7 0a5 5 0 0 0-2 .2l-.3.3c-.1.1-.1.2 0 .2.3 0 .5.2.7.4v.1l.1.4.1.7a7.8 7.8 0 0 1-.2 2.3v.2H6l-.3.1-.2-.1-.4-.4-.4-.6-.5-1v-.2a21.9 21.9 0 0 1-1-2L3 .5H.5L.1.6 0 .9v.3A31.3 31.3 0 0 0 4 8l.2.2.6.5.8.6a4.4 4.4 0 0 0 2.3.6h1c.2 0 .3 0 .4-.2l.1-.2v-.2l.1-.7.2-.5a1 1 0 0 1 .3-.4l.5.1.5.5a16.1 16.1 0 0 0 1.2 1.3l.1.1.5.2c.2.1.3.1.4 0h2.7l.2-.3V9Z"/></svg>