<svg xmlns="http://www.w3.org/2000/svg" width="184" height="22" fill="none"><path fill="#DBB590" d="M2.9 7.7 0 10.5l2.9 2.8 2.9-2.8-3-2.8ZM181 7.7l-2.8 2.8 2.9 2.8 2.9-2.8-3-2.8Z"/><path fill="#DBB590" fill-rule="evenodd" d="m28 9.4.2-1V2.2c0-.6-.3-1.1-.7-1.5-.4-.5-1-.7-1.6-.7h-8v21h8c.6 0 1.2-.2 1.6-.6.4-.4.7-1 .7-1.6V12a2.5 2.5 0 0 0-.9-1.8l.7-.7Zm-6.3-5.8h2.7v5h-2.7v-5Zm0 8.7h2.7v5.1h-2.7v-5.1ZM44.2.7c-.4-.5-1-.7-1.6-.7H37a2.4 2.4 0 0 0-1.7.7 2.2 2.2 0 0 0-.7 1.5v16.6c0 .6.3 1.2.7 1.6.5.4 1 .6 1.7.6h5.6c.6 0 1.2-.2 1.6-.6.4-.4.7-1 .7-1.6V2.2c0-.6-.3-1.1-.7-1.5Zm-5.8 3H41v13.7h-2.7V3.6ZM56.5 12.3l1.6 8.7h3.7l-1.6-9c.4 0 .8-.4 1-.7.2-.4.4-.8.4-1.2V2.2a2.1 2.1 0 0 0-.7-1.5 2.3 2.3 0 0 0-1.6-.7h-8v21h3.8v-8.7h1.4Zm-1.4-8.7h2.7v5h-2.7v-5ZM77.1.7c-.4-.5-1-.7-1.6-.7h-5.6c-.7 0-1.2.2-1.7.7-.4.4-.6 1-.6 1.5v16.6c0 .6.2 1.2.7 1.6.4.4 1 .6 1.6.6h5.6c.6 0 1.2-.2 1.6-.6.4-.4.7-1 .7-1.6V2.2c0-.6-.2-1.1-.7-1.5Zm-5.8 3H74v13.7h-2.7V3.6ZM93.8.7c-.4-.5-1-.7-1.6-.7h-8v21h8c.6 0 1.2-.2 1.6-.6.5-.4.7-1 .7-1.6V2.2c0-.6-.2-1.1-.7-1.5Zm-5.8 3h2.7v13.7H88V3.6Z" clip-rule="evenodd"/><path fill="#DBB590" d="M105 0h-3.8v21h3.7V0ZM121.6 21V0h-3.8v8.6L115.1 0h-3.7v21h3.7V12l2.7 9.1h3.8ZM137.6 9.3c-.4-.4-1-.6-1.6-.6h-4.2v-5h2.7v3.6l3.8-.8V2.2c0-.6-.3-1.1-.7-1.5-.4-.5-1-.7-1.6-.7h-5.6a2.4 2.4 0 0 0-1.7.7 2.2 2.2 0 0 0-.6 1.5v7.9a2.2 2.2 0 0 0 .6 1.5 2.3 2.3 0 0 0 1.7.7h4.1v5.1h-2.7v-3.7l-3.7.8v4.3c0 .6.2 1.2.6 1.6.5.4 1 .6 1.7.6h5.6c.6 0 1.2-.2 1.6-.6.4-.4.7-1 .7-1.6V11c0-.6-.3-1.1-.7-1.6ZM155.5 21 152 10.5 155.5 0h-3.8l-2.9 8.7h-.3V0h-3.7v21h3.7v-8.7h.4l2.8 8.6v.1h3.8ZM165.3 0h-3.7v21h3.7V0Z"/></svg>